<?xml version="1.0"?>
<svg xmlns="http://www.w3.org/2000/svg" height="512px" viewBox="0 -38 512.00112 512" width="512px"><g><path d="m248.867188 324.445312c-.25-11.640624-2.265626-23.308593-4.773438-34.660156-2.453125-11.117187-6.046875-21.925781-7.804688-33.222656-.015624-.082031-.027343-.164062-.039062-.246094-.960938-6.242187-1.632812-12.789062-1.925781-18.949218-.003907-.082032-.003907-.167969-.007813-.25-.074218-1.605469-.125-3.238282-.148437-4.898438-.078125-6.183594.222656-11.957031.898437-17.292969.003906-.019531.003906-.035156.007813-.054687.621093-4.921875 1.566406-9.953125 3.164062-14.640625.671875-1.972657 10.140625-30.4375 8.015625-62.363281-.019531-.265626-.050781-.523438-.09375-.78125-1.359375-18.359376-6.363281-34.480469-14.851562-47.4375-15.542969-23.722657-42.199219-37.265626-79.238282-40.257813-2.886718-.417969-22.066406-2.808594-44.386718 4.175781-20.875 6.535156-48.296875 22.707032-63.539063 62.445313-.058593.132812-.121093.261719-.171875.398437-.28125.75-.550781 1.476563-.808594 2.191406-.007812.019532-.011718.039063-.019531.058594-.507812 1.402344-.972656 2.753906-1.402343 4.074219-2.15625 6.597656-4.394532 13.28125-6.558594 19.742187-7.675782 22.9375-15.617188 46.652344-21.464844 70.945313-.066406.277344-.128906.558594-.195312.835937-3.640626 15.167969-7.460938 32.742188-10.109376 51.570313-.070312.507813-.144531 1.015625-.214843 1.523437-.105469.789063-.210938 1.582032-.3125 2.375-1.59375 12.097657-2.507813 23.476563-2.785157 34.449219-.0039058.070313-.0039058.144531-.007812.21875-.0273438 1.121094-.046875 2.238281-.0625 3.351563-.0039062.289062-.0039062.578125-.0078125.871094-.0078125.769531-.0234375 1.542968-.0234375 2.3125 0 .0625.0078125.128906.0078125.195312-.00390625 3.949219.078125 7.914062.2539065 11.886719.621093 13.722656 3.734375 27.078125 9.027343 39.472656.054688.148437.089844.300781.152344.449219.789063 1.835937 1.640625 3.644531 2.527344 5.433594.007812-.003907.015625-.011719.023438-.015626 7.1875 14.496094 17.453124 27.476563 30.292968 37.90625 25.109375 20.390626 56.992188 30.699219 94.898438 30.699219 3.167968 0 6.382812-.074219 9.636718-.21875 18.027344-.800781 44.046876-5.417969 65.648438-22.878906 9.066406-7.332031 16.496094-16.449219 21.875-26.792969 7.148438-13.746094 10.621094-29.007812 13.234375-44.171875 1.054687-6.109375 1.421875-12.273437 1.289063-18.449219zm-15.195313 10.25c-1.183594 12.28125-2.84375 16.761719-4.894531 24.542969-22.199219-18.015625-49.265625-30.25-78.972656-35.585937-32.957032-5.917969-66.800782-3.011719-97.882813 8.402344-11.046875 4.058593-21.777344 9.445312-31.96875 16.011718-2.660156-8.265625-4.246094-16.910156-4.640625-25.734375-.046875-.976562-.058594-1.953125-.089844-2.929687 8.128906.882812 14.898438 1.496094 16.878906 1.582031 3.703126.164063 7.519532.273437 11.410157.273437 15.808593 0 32.761719-1.84375 47.792969-9.632812 13.53125-7.011719 23.90625-18.105469 29.75-31.65625 5.800781.34375 11.605468.53125 17.402343.53125 5.683594 0 11.359375-.183594 17.011719-.511719 4.996094 13.03125 14.472656 27.851563 42.988281 41.015625 10.804688 4.976563 22.707031 8.34375 35.453125 10.066406-.070312 2.382813-.234375 3.589844-.238281 3.625zm-.507813-18.9375c-10.214843-1.617187-19.734374-4.441406-28.398437-8.433593-15.03125-6.9375-26.617187-14.691407-33.449219-28.695313 9.296875-1.058594 18.503906-2.542968 27.542969-4.5 8.996094-1.949218 15.671875-10.464844 16.230469-20.707031.414062-7.527344-2.558594-14.648437-7.945313-19.046875-4.640625-3.789062-10.554687-5.105469-16.230469-3.621094-7.554687 1.980469-15.300781 3.34375-22.710937 4.277344 1.5-4.960938 3.609375-9.800781 6.363281-14.398438 5.4375-9.085937 14.738282-15.578124 24.582032-22.449218 1.546874-1.082032 3.085937-2.15625 4.613281-3.242188 3.109375-2.21875 5.585937-4.085937 7.804687-5.878906 5.550782-4.496094 11.964844-10.09375 17.792969-16.777344-2.1875 13.558594-5.3125 22.882813-5.390625 23.113282-.015625.046874-.027344.089843-.042969.132812-.90625 2.816406-1.570312 5.304688-2.203125 8.179688-6.804687 31.003906 1.660156 65.996093 2.054688 67.597656.027344.109375.054687.214844.089844.320312.769531 2.625 1.484374 5.160156 2.144531 7.617188.046875.175781.089843.34375.136719.519531.277343 1.023437.539062 2.035156.796874 3.027344.058594.238281.117188.472656.179688.707031.238281.949219.476562 1.886719.699219 2.808594.050781.203125.097656.40625.148437.605468.242188.996094.472656 1.976563.695313 2.941407.019531.089843.042969.179687.0625.273437 2.390625 10.40625 3.714843 18.921875 4.433593 25.628906zm-71.519531-102.863281c-4.460937 7.453125-7.585937 15.421875-9.390625 23.582031-13.910156.808594-24.53125.300782-26.878906.164063-4.101562-22.292969-16.90625-42.5625-31.722656-56.027344-2.660156-2.417969-5.367188-4.597656-7.984375-6.707031-1.246094-1-2.453125-1.976562-3.628907-2.953125 3.832032-13.59375 14.011719-37.46875 39.132813-44.378906 16.488281-4.539063 31.695313-2.914063 43.972656 4.6875 12.703125 7.871093 21.617188 22.035156 25.105469 39.878906.882812 4.542969 1.1875 9.265625 1.417969 13.890625-.382813.265625-.757813.53125-1.140625.800781-10.710938 7.476563-21.789063 15.207031-28.882813 27.0625zm-50.019531-144.773437c11.128906-3.566406 21.488281-4.382813 28.636719-4.382813 5.945312 0 9.667969.566407 9.75.578125.195312.03125.398437.054688.597656.074219 32.269531 2.554687 55.167969 13.816406 68.070313 33.46875 7.984374 12.160156 11.445312 26.375 12.453124 40.132813-2.363281 11.867187-10.425781 23.464843-25.203124 36.152343-.226563-1.9375-.507813-3.894531-.898438-5.886719-4.296875-22.007812-15.644531-39.695312-31.953125-49.796874-15.933594-9.875-35.265625-12.089844-55.902344-6.410157-21.378906 5.882813-37.941406 22.40625-46.828125 46.164063-4.878906-7.753906-8.375-17.242188-10.367187-28.28125-.570313-3.144532-1.003907-6.421875-1.304688-9.757813 10.523438-26.65625 28.300781-44.15625 52.949219-52.054687zm-93.160156 198.851562c.515625-3.597656 1.082031-7.171875 1.695312-10.757812.046875-.269532.089844-.539063.136719-.808594 2.5625-14.835938 5.6875-29.230469 9.382813-43.761719 1.800781-7.089843 3.773437-14.132812 5.859374-21.144531.007813-.023438.015626-.054688.023438-.082031 4.25-14.265625 8.957031-28.359375 13.578125-42.167969 2.589844 7.65625 5.972656 14.539062 10.125 20.570312 6.683594 9.699219 15.777344 15.238282 24.253906 22.9375 10.65625 9.683594 19.128907 22.429688 23.863281 35.890626.894532 2.539062 1.628907 5.074218 2.242188 7.601562-12.917969-1.566406-32.230469-4.871094-50.019531-11.675781-5.476563-2.097657-11.5-1.429688-16.523438 1.828125-5.835937 3.785156-9.566406 10.539062-9.976562 18.070312-.5625 10.242188 5.144531 19.433594 13.875 22.351563 1.292969.433593 2.59375.855469 3.898437 1.269531 3.957032 1.257812 8.195313-.929688 9.457032-4.894531 1.261718-3.960938-.929688-8.199219-4.894532-9.457031-1.230468-.394532-2.457031-.792969-3.683594-1.203126-1.910156-.636718-3.828124-3.394531-3.613281-7.246093.175781-3.226563 1.734375-5.34375 3.132813-6.253907 1.476562-.957031 2.582031-.535156 2.945312-.394531 31.996094 12.242188 67.007813 13.890625 69.707032 14 2.601562.171875 37.960937 2.285157 70.800781-6.316406.375-.101563 1.523437-.398437 2.886719.714844 1.292968 1.054687 2.609374 3.332031 2.433593 6.558593-.210937 3.851563-2.414062 6.382813-4.382812 6.808594-34.5 7.472656-71.511719 8.011719-107.03125 1.558594-4.089844-.746094-8.011719 1.972656-8.753907 6.066406-.742187 4.089844 1.96875 8.011719 6.0625 8.753906 6.292969 1.144532 12.628907 2.070313 18.992188 2.796876-4.675781 8.28125-11.738281 15.09375-20.566406 19.664062-15.582032 8.078125-34.839844 8.417969-51.617188 7.6875-1.667968-.074219-8.90625-.730469-17.566406-1.691406.339844-12.496094 1.511719-24.972656 3.277344-37.273438zm184.535156 135.171875c-18.417969 14.890625-41.078125 18.847657-56.847656 19.546875-38.355469 1.699219-70.109375-7.421875-94.371094-27.125-10.972656-8.914062-19.789062-19.972656-26.011719-32.320312 9.953125-6.664063 20.492188-12.066406 31.347657-16.054688 28.566406-10.492187 59.699218-13.160156 90.023437-7.710937 29.144531 5.230469 55.457031 17.667969 76.429687 36.0625-.820312 1.921875-1.699218 3.757812-2.625 5.539062.011719 0 .027344.003907.039063.003907-4.257813 8.175781-9.980469 15.589843-17.984375 22.058593zm0 0" data-original="#000000" class="active-path" data-old_color="#000000" fill="#FFFFFF"/><path d="m511.988281 259.957031c-.335937-37.195312-7.757812-74.449219-17.582031-110.183593-1.761719-6.40625-3.640625-12.78125-5.597656-19.132813-3.800782-12.335937-7.894532-24.574219-11.992188-36.816406-2.164062-6.464844-4.402344-13.148438-6.558594-19.734375-.429687-1.324219-.894531-2.675782-1.402343-4.078125-.007813-.023438-.015625-.050781-.027344-.074219-.257813-.714844-.523437-1.4375-.804687-2.183594-.050782-.136718-.109376-.261718-.167969-.390625-15.242188-39.746093-42.664063-55.921875-63.542969-62.457031-22.3125-6.980469-41.492188-4.59375-44.382812-4.171875-37.039063 2.988281-63.699219 16.535156-79.242188 40.257813-8.488281 12.953124-13.492188 29.078124-14.847656 47.4375-.042969.257812-.078125.515624-.097656.777343-2.121094 31.910157 7.332031 60.359375 8.019531 62.363281 3.429687 10.0625 4.132812 20.421876 4.0625 31.003907-.101563 13.179687-1.960938 25.074219-3.183594 31.480469-.007813.050781-.015625.097656-.027344.148437-.511719 2.679687-1.101562 5.089844-1.84375 7.699219-2.066406 7.257812-3.902343 14.589844-5.429687 21.925781-2.894532 13.902344-3.953125 24.386719-4.25 31.539063-.007813.148437.003906.296874.003906.445312-.585938 15.257812 3.050781 31.4375 7.703125 45.921875 4.839844 15.066406 12.707031 28.9375 24.410156 39.734375 1.398438 1.292969 2.839844 2.535156 4.324219 3.734375 21.597656 17.460937 47.621094 22.078125 65.644531 22.878906 3.257813.144531 6.46875.21875 9.640625.21875 37.898438 0 69.789063-10.308593 94.894532-30.699219 25.246093-20.503906 40.5625-50.84375 42.023437-83.25.21875-4.832031.296875-9.625.253906-14.394531zm-218.667969-210.761719c12.898438-19.648437 35.800782-30.910156 68.066407-33.46875.207031-.015624.414062-.042968.621093-.074218.078126-.015625 3.800782-.597656 9.785157-.597656 6.988281 0 17.0625.796874 28.019531 4.226562 24.9375 7.804688 42.902344 25.367188 53.507812 52.234375-.300781 3.335937-.730468 6.613281-1.304687 9.761719-1.996094 11.054687-5.5 20.554687-10.390625 28.316406-5.554688-14.757812-14.175781-27.050781-25.015625-35.371094-3.300781-2.535156-8.027344-1.910156-10.5625 1.386719-2.53125 3.300781-1.910156 8.027344 1.390625 10.558594 10.320312 7.921875 18.214844 20.648437 22.523438 36.125-1.179688.976562-2.390626 1.953125-3.636719 2.957031-2.617188 2.105469-5.320313 4.285156-7.972657 6.699219-14.820312 13.464843-27.613281 33.734375-31.714843 56.027343-2.359375.136719-12.980469.644532-26.882813-.160156-1.804687-8.164062-4.941406-16.128906-9.402344-23.585937-7.09375-11.851563-18.171874-19.585938-28.882812-27.0625-.382812-.265625-.753906-.53125-1.136719-.800781.226563-4.625.53125-9.347657 1.417969-13.886719 6.226562-31.882813 28.332031-49.808594 57.675781-46.75 4.140625.425781 7.839844-2.574219 8.269531-6.710938.429688-4.136719-2.578124-7.839843-6.714843-8.269531-18.273438-1.894531-34.957031 2.75-48.253907 13.433594-13.105468 10.523437-22.015624 26.226562-25.761718 45.417968-.386719 1.992188-.660156 3.949219-.886719 5.886719-14.777344-12.691406-22.847656-24.289062-25.210937-36.160156 1.007812-13.757813 4.46875-27.972656 12.453124-40.132813zm94.742188 153.785157c2.6875-.109375 37.707031-1.753907 69.710938-14 .363281-.140625 1.46875-.5625 2.945312.394531 1.402344.910156 2.960938 3.03125 3.136719 6.257812.210937 3.851563-1.707031 6.605469-3.613281 7.242188-45.707032 15.277344-96.816407 18.074219-143.910157 7.871094-1.96875-.425782-4.175781-2.957032-4.386719-6.804688-.175781-3.230468 1.144532-5.507812 2.433594-6.5625.820313-.667968 1.554688-.824218 2.097656-.824218.363282 0 .636719.070312.789063.109374 32.828125 8.601563 68.183594 6.492188 70.796875 6.316407zm-104.792969 38.472656c.019531-.082031.039063-.160156.058594-.242187 1.386719-6.003907 3.046875-12.273438 4.804687-18.246094.03125-.105469.058594-.210938.085938-.316406 3.015625-12.207032 4.394531-25.023438 4.65625-37.5625.214844-10.386719-.613281-20.71875-2.746094-30.890626-2.144531-10.230468-5.800781-20.117187-7.488281-30.570312 5.828125 6.679688 12.238281 12.28125 17.792969 16.777344 3.96875 3.214844 8.238281 6.203125 12.414062 9.117187 9.84375 6.871094 19.144532 13.363281 24.582032 22.449219 2.753906 4.601562 4.875 9.441406 6.378906 14.402344-7.414063-.933594-15.164063-2.296875-22.726563-4.277344-5.675781-1.488281-11.589843-.167969-16.226562 3.617188-5.390625 4.398437-8.363281 11.519531-7.949219 19.050781.558594 10.242187 7.234375 18.757812 16.230469 20.703125 9.050781 1.960937 18.238281 3.445312 27.503906 4.5-6.832031 13.992187-18.390625 21.761718-33.40625 28.699218-8.667969 3.992188-18.191406 6.816407-28.402344 8.429688.71875-6.710938 2.046875-15.226562 4.4375-25.640625zm176.945313 104.453125c-24.261719 19.703125-56.007813 28.820312-94.371094 27.125-15.765625-.699219-38.429688-4.660156-56.847656-19.546875-7.246094-5.855469-12.625-12.484375-16.738282-19.753906.015626.003906.03125.007812.042969.011719-1.398437-2.480469-2.691406-5.09375-3.875-7.863282 20.972657-18.394531 47.285157-30.828125 76.429688-36.0625 30.328125-5.445312 61.457031-2.777344 90.019531 7.710938 10.878906 4 21.441406 9.414062 31.351562 16.058594-2.539062 5.035156-5.511718 9.851562-8.882812 14.398437-.332031.445313-.660156.890625-.996094 1.328125-.191406.25-.386718.496094-.582031.742188-.460937.589843-.929687 1.175781-1.40625 1.757812-.121094.148438-.246094.300781-.371094.453125-.605469.722656-1.214843 1.441406-1.839843 2.152344-3.625 4.125-7.609376 7.976562-11.933594 11.488281zm36.472656-72.234375c-.398438 8.824219-1.980469 17.46875-4.644531 25.730469-10.1875-6.558594-20.917969-11.949219-31.96875-16.011719-31.078125-11.414063-64.921875-14.316406-97.882813-8.398437-29.707031 5.335937-56.773437 17.570312-78.972656 35.585937-2.046875-7.769531-3.515625-15.96875-4.886719-24.492187-.007812-.046876-.171875-1.269532-.238281-3.679688 12.738281-1.722656 24.644531-5.085938 35.449219-10.066406 16.339843-7.542969 34.121093-18.316406 42.976562-41.007813 5.648438.328125 11.308594.507813 16.976563.507813 5.828125 0 11.65625-.175782 17.476562-.519532 5.847656 13.539063 16.195313 24.636719 29.71875 31.640626 15.03125 7.792968 31.984375 9.632812 47.796875 9.632812 3.886719 0 7.707031-.109375 11.410157-.273438 1.972656-.085937 8.742187-.695312 16.878906-1.582031-.035156.980469-.046875 1.953125-.089844 2.933594zm-17.445312-16.398437c-16.78125.734374-36.035157.394531-51.621094-7.6875-8.824219-4.570313-15.886719-11.386719-20.558594-19.671876 19.785156-2.261718 39.296875-6.515624 57.953125-12.753906 8.734375-2.917968 14.441406-12.109375 13.878906-22.351562-.410156-7.527344-4.140625-14.285156-9.976562-18.070313-5.023438-3.257812-11.046875-3.921875-16.527344-1.828125-17.789063 6.808594-37.109375 10.109375-50.027344 11.679688.613281-2.53125 1.359375-5.066406 2.25-7.605469 4.734375-13.460937 13.210938-26.207031 23.871094-35.890625 4.835937-4.394531 10.140625-8.179688 14.984375-12.570312 3.84375-3.484376 6.789062-6.777344 9.269531-10.371094 4.148438-6.027344 7.53125-12.90625 10.121094-20.566406 3.664063 10.941406 7.375 22.058593 10.875 33.300781.023437.074219.046875.148437.070313.222656 1.800781 5.792969 3.488281 11.441406 5.140624 17.292969.019532.078125.042969.152344.0625.226562 2.902344 10.296875 5.421876 20.679688 7.730469 31.097656 2.761719 12.445313 5.523438 24.835938 6.984375 37.511719.378906 3.273438 4.285156 36.207031 3.089844 36.339844-8.671875.96875-15.910156 1.625-17.570312 1.695313zm0 0" data-original="#000000" class="active-path" data-old_color="#000000" fill="#FFFFFF"/></g> </svg>
